<svg width="372" height="434" fill="none" xmlns="http://www.w3.org/2000/svg"><path fill-rule="evenodd" clip-rule="evenodd" d="M221.54 168.046c6.053-7.061 15.867-7.061 21.92 0l77.5 90.417c6.053 7.062 6.053 18.512 0 25.574l-77.5 90.417c-6.053 7.062-15.867 7.062-21.92 0-6.053-7.062-6.053-18.512 0-25.574l66.54-77.63-66.54-77.63c-6.053-7.062-6.053-18.512 0-25.574z" fill="#FFC72B"/><path fill-rule="evenodd" clip-rule="evenodd" d="M62 54.25c8.56 0 15.5 8.096 15.5 18.083v126.584c0 14.388 4.9 28.186 13.62 38.36 8.72 10.174 20.547 15.89 32.88 15.89h186c8.56 0 15.5 8.096 15.5 18.083 0 9.987-6.94 18.083-15.5 18.083H124c-20.554 0-40.267-9.526-54.8-26.482-14.535-16.957-22.7-39.954-22.7-63.934V72.333c0-9.987 6.94-18.083 15.5-18.083z" fill="#FFC72B"/></svg>