<svg width="412" height="434" fill="none" xmlns="http://www.w3.org/2000/svg"><path fill-rule="evenodd" clip-rule="evenodd" d="M166.639 168.046c-6.704-7.061-17.573-7.061-24.277 0l-85.834 90.417c-6.704 7.062-6.704 18.512 0 25.574l85.834 90.417c6.704 7.062 17.573 7.062 24.277 0 6.704-7.062 6.704-18.512 0-25.574l-73.695-77.63 73.695-77.63c6.704-7.062 6.704-18.512 0-25.574z" fill="#FFC72B"/><path fill-rule="evenodd" clip-rule="evenodd" d="M343.333 54.25c-9.481 0-17.166 8.096-17.166 18.083v126.584c0 14.388-5.426 28.186-15.084 38.36s-22.758 15.89-36.416 15.89h-206c-9.481 0-17.167 8.096-17.167 18.083 0 9.987 7.686 18.083 17.167 18.083h206c22.764 0 44.596-9.526 60.693-26.482 16.097-16.957 25.14-39.954 25.14-63.934V72.333c0-9.987-7.686-18.083-17.167-18.083z" fill="#FFC72B"/></svg>