<svg width="30" height="30" fill="none" xmlns="http://www.w3.org/2000/svg"><path fill-rule="evenodd" clip-rule="evenodd" d="M3.75 17.5c.69 0 1.25.56 1.25 1.25v5A1.25 1.25 0 006.25 25h17.5A1.25 1.25 0 0025 23.75v-5a1.25 1.25 0 112.5 0v5a3.75 3.75 0 01-3.75 3.75H6.25a3.75 3.75 0 01-3.75-3.75v-5c0-.69.56-1.25 1.25-1.25z" fill="#fff"/><path fill-rule="evenodd" clip-rule="evenodd" d="M7.866 11.616a1.25 1.25 0 011.768 0L15 16.982l5.366-5.366a1.25 1.25 0 011.768 1.768l-6.25 6.25a1.25 1.25 0 01-1.768 0l-6.25-6.25a1.25 1.25 0 010-1.768z" fill="#fff"/><path fill-rule="evenodd" clip-rule="evenodd" d="M15 2.5c.69 0 1.25.56 1.25 1.25v15a1.25 1.25 0 11-2.5 0v-15c0-.69.56-1.25 1.25-1.25z" fill="#fff"/></svg>