<svg width="30" height="30" fill="none" xmlns="http://www.w3.org/2000/svg"><path fill-rule="evenodd" clip-rule="evenodd" d="M15 3.75C8.787 3.75 3.75 8.787 3.75 15S8.787 26.25 15 26.25 26.25 21.213 26.25 15 21.213 3.75 15 3.75zM1.25 15C1.25 7.406 7.406 1.25 15 1.25S28.75 7.406 28.75 15 22.594 28.75 15 28.75 1.25 22.594 1.25 15z" fill="#fff"/><path fill-rule="evenodd" clip-rule="evenodd" d="M1.25 15c0-.69.56-1.25 1.25-1.25h25a1.25 1.25 0 110 2.5h-25c-.69 0-1.25-.56-1.25-1.25z" fill="#fff"/><path fill-rule="evenodd" clip-rule="evenodd" d="M11.25 15A17.875 17.875 0 0015 25.561 17.875 17.875 0 0018.75 15 17.875 17.875 0 0015 4.439 17.875 17.875 0 0011.25 15zM15 2.5l-.923-.843A20.375 20.375 0 008.75 15.026a20.375 20.375 0 005.327 13.317 1.25 1.25 0 001.846 0 20.374 20.374 0 005.327-13.369 20.374 20.374 0 00-5.327-13.317L15 2.5z" fill="#fff"/></svg>