<svg width="40" height="40" fill="none" xmlns="http://www.w3.org/2000/svg"><path fill-rule="evenodd" clip-rule="evenodd" d="M29.007 8.154c-1.001 2.085-1.67 5.093-1.67 8.515 0 3.421.669 6.429 1.67 8.514 1.053 2.194 2.186 2.86 2.92 2.86.733 0 1.866-.666 2.92-2.86 1-2.085 1.67-5.093 1.67-8.514 0-3.422-.67-6.43-1.67-8.515-1.054-2.194-2.187-2.86-2.92-2.86-.734 0-1.867.666-2.92 2.86zM7.127 13.45l18.405-6.11c-1.068 2.579-1.678 5.841-1.678 9.329 0 3.487.61 6.75 1.678 9.328l-18.403-6.11-.033-.01a2.734 2.734 0 01-1.488-1.146 2.927 2.927 0 01-.443-1.871 1.887 1.887 0 000-.383c-.067-.658.09-1.32.443-1.871a2.732 2.732 0 011.488-1.145l.033-.01zM6.086 9.99l24.072-7.994a4.886 4.886 0 011.77-.33c2.763 0 4.796 2.285 6.035 4.865C39.252 9.22 40 12.806 40 16.669c0 3.862-.748 7.448-2.038 10.136-1.239 2.58-3.272 4.866-6.035 4.866a4.884 4.884 0 01-1.77-.331l-9.433-3.132 1.537 4.837a5.307 5.307 0 01-.062 3.85 5.008 5.008 0 01-2.68 2.736l-.002.001a4.727 4.727 0 01-3.752-.041 5.02 5.02 0 01-2.652-2.859L8.835 24.26l-2.75-.913a6.232 6.232 0 01-3.376-2.604 6.667 6.667 0 01-1.024-4.074 6.667 6.667 0 011.024-4.075A6.232 6.232 0 016.085 9.99zm10.537 16.855l-3.613-1.2 3.37 9.825c.143.352.413.633.751.783.347.154.739.159 1.089.013.35-.148.628-.433.776-.794a1.54 1.54 0 00.012-1.135 1.87 1.87 0 01-.038-.106l-2.347-7.386zm16.273-13.458a5.047 5.047 0 011.208 3.28 5.047 5.047 0 01-1.208 3.282 4.674 4.674 0 01-3 1.609 21.52 21.52 0 01-.541-4.89 21.52 21.52 0 01.541-4.89 4.673 4.673 0 013 1.609z" fill="#fff"/></svg>