<svg width="30" height="30" fill="none" xmlns="http://www.w3.org/2000/svg"><g clip-path="url(#clip0_79_161)" fill-rule="evenodd" clip-rule="evenodd" fill="#fff"><path d="M15 10a5 5 0 100 10 5 5 0 000-10zm-7.5 5a7.5 7.5 0 1115 0 7.5 7.5 0 01-15 0zM15 0c.69 0 1.25.56 1.25 1.25v2.5a1.25 1.25 0 11-2.5 0v-2.5C13.75.56 14.31 0 15 0zm0 25c.69 0 1.25.56 1.25 1.25v2.5a1.25 1.25 0 11-2.5 0v-2.5c0-.69.56-1.25 1.25-1.25zM4.391 4.391a1.25 1.25 0 011.768 0l1.775 1.775a1.25 1.25 0 11-1.768 1.768L4.391 6.159a1.25 1.25 0 010-1.768zm17.675 17.675a1.25 1.25 0 011.768 0l1.775 1.775a1.25 1.25 0 01-1.768 1.768l-1.775-1.775a1.25 1.25 0 010-1.768zM0 15c0-.69.56-1.25 1.25-1.25h2.5a1.25 1.25 0 110 2.5h-2.5C.56 16.25 0 15.69 0 15zm25 0c0-.69.56-1.25 1.25-1.25h2.5a1.25 1.25 0 110 2.5h-2.5c-.69 0-1.25-.56-1.25-1.25zM7.934 22.066a1.25 1.25 0 010 1.768l-1.775 1.775A1.25 1.25 0 014.39 23.84l1.775-1.775a1.25 1.25 0 011.768 0zM25.609 4.391a1.25 1.25 0 010 1.768l-1.775 1.775a1.25 1.25 0 11-1.768-1.768l1.775-1.775a1.25 1.25 0 011.768 0z"/></g><defs><clipPath id="clip0_79_161"><path fill="#fff" d="M0 0h30v30H0z"/></clipPath></defs></svg>